<?xml version="1.0" standalone="no"?>
<!DOCTYPE svg PUBLIC "-//W3C//DTD SVG 20010904//EN"
 "http://www.w3.org/TR/2001/REC-SVG-20010904/DTD/svg10.dtd">
<svg version="1.0" xmlns="http://www.w3.org/2000/svg"
 width="3077.000000pt" height="3077.000000pt" viewBox="0 0 3077.000000 3077.000000"
 preserveAspectRatio="xMidYMid meet">
<metadata>
Created by potrace 1.14, written by Peter Selinger 2001-2017
</metadata>
<g transform="translate(0.000000,3077.000000) scale(0.100000,-0.100000)"
fill="#000000" stroke="none">
<path d="M14705 25873 c-2352 -78 -4500 -474 -6510 -1200 -3934 -1421 -6776
-3932 -7780 -6873 -272 -798 -398 -1551 -399 -2385 0 -461 27 -793 99 -1220
400 -2372 1973 -4573 4473 -6259 2500 -1687 5729 -2732 9207 -2980 1057 -76
2165 -76 3230 0 3326 236 6446 1212 8895 2782 2207 1416 3752 3241 4435 5242
272 798 398 1551 399 2385 0 461 -27 793 -99 1220 -444 2633 -2331 5045 -5307
6784 -1369 799 -2952 1433 -4663 1866 -1448 367 -2959 577 -4580 635 -236 9
-1175 11 -1400 3z m-2750 -5668 c757 -74 1396 -270 1930 -592 425 -256 685
-506 830 -798 180 -362 157 -750 -63 -1060 -132 -187 -313 -321 -509 -377 -60
-17 -105 -22 -198 -22 -115 -1 -125 1 -242 41 -173 60 -423 175 -753 348 -433
227 -674 327 -973 405 -289 75 -538 101 -842 89 -328 -14 -616 -83 -892 -214
-213 -102 -360 -204 -532 -370 -499 -482 -755 -1136 -790 -2020 -13 -334 9
-704 60 -989 118 -665 427 -1237 864 -1604 312 -262 678 -416 1125 -473 141
-19 490 -16 637 4 432 60 781 226 1058 502 184 184 319 401 405 650 61 179
110 448 110 609 l0 54 -557 5 c-449 3 -582 8 -678 21 -586 82 -892 287 -997
671 -18 69 -22 106 -22 265 0 160 3 196 22 265 120 439 495 656 1217 706 214
15 2031 6 2170 -10 769 -91 1094 -412 1166 -1151 14 -151 7 -522 -16 -755
-105 -1089 -514 -1972 -1236 -2670 -723 -700 -1620 -1077 -2743 -1156 -221
-15 -770 -7 -966 15 -934 105 -1692 426 -2357 1001 -215 185 -466 454 -645
692 -483 639 -787 1413 -897 2283 -40 311 -46 429 -46 830 0 402 8 544 45 840
124 980 471 1804 1039 2465 323 377 710 692 1146 936 605 338 1337 534 2165
583 158 9 812 -3 965 -19z m-6897 -121 c201 -36 391 -128 554 -271 196 -172
324 -382 380 -626 26 -112 30 -350 9 -467 -82 -448 -439 -818 -890 -921 -112
-26 -337 -35 -456 -20 -490 64 -881 401 -1007 868 -32 122 -37 383 -9 521 35
170 95 302 199 442 206 276 524 458 857 489 109 11 252 5 363 -15z m12251 -24
c583 -60 881 -458 930 -1240 5 -81 6 -995 3 -2080 -5 -1987 -3 -2110 34 -2405
92 -726 370 -1249 820 -1537 188 -120 474 -215 749 -249 129 -16 452 -16 580
0 928 116 1449 726 1579 1852 31 265 36 564 36 2384 0 1828 3 2032 36 2255 79
545 320 871 723 977 130 34 398 44 540 19 217 -38 349 -104 491 -246 215 -215
320 -512 351 -996 14 -227 -5 -4441 -21 -4604 -85 -866 -291 -1505 -665 -2065
-633 -949 -1632 -1476 -2965 -1566 -227 -15 -783 -6 -980 16 -1000 111 -1737
430 -2329 1009 -643 630 -984 1407 -1108 2526 -15 140 -17 344 -20 2070 -4
2002 4 2677 32 2860 90 594 351 923 796 1004 143 26 245 30 388 16z m8871 -15
c240 -39 447 -145 630 -321 193 -187 308 -403 346 -654 36 -244 3 -473 -100
-685 -138 -282 -386 -500 -679 -598 -135 -46 -237 -61 -407 -60 -181 1 -309
23 -454 79 -299 115 -559 368 -667 649 -66 169 -73 211 -73 430 0 184 2 208
26 295 53 195 154 367 303 516 204 205 438 321 720 357 77 10 269 5 355 -8z
m-21065 -3158 c419 -107 624 -359 711 -878 16 -93 18 -203 21 -1009 2 -498 -1
-1431 -6 -2075 -10 -1264 -9 -1239 -66 -1454 -54 -201 -124 -329 -250 -457
-79 -80 -103 -98 -195 -143 -126 -62 -224 -88 -388 -103 -146 -14 -332 -1
-464 32 -106 27 -266 105 -343 167 -191 156 -307 407 -356 778 -16 117 -14
3902 2 4100 50 626 299 959 784 1050 106 19 461 14 550 -8z m21015 -28 c427
-53 684 -282 791 -705 62 -247 60 -161 59 -2281 0 -1176 -4 -1984 -10 -2065
-46 -615 -262 -942 -695 -1054 -135 -35 -399 -45 -551 -21 -339 54 -571 229
-698 526 -42 97 -69 191 -98 341 -21 114 -22 128 -25 1305 -2 655 1 1593 6
2085 10 981 10 977 76 1204 115 395 370 612 781 665 99 12 266 13 364 0z
m1685 -5164 c177 -46 314 -199 345 -384 39 -234 -125 -476 -360 -530 -108 -25
-246 -6 -343 47 -118 64 -217 206 -238 345 -35 227 118 461 342 521 72 19 181
20 254 1z"/>
<path d="M27626 11609 c-120 -20 -231 -105 -285 -219 -22 -47 -26 -68 -26
-150 0 -82 4 -103 27 -152 70 -150 244 -244 404 -218 273 45 412 348 263 574
-81 122 -238 190 -383 165z m24 -259 c0 -30 -1 -30 -55 -30 l-55 0 0 -135 0
-135 -35 0 -35 0 0 135 0 135 -60 0 -60 0 0 30 0 30 150 0 150 0 0 -30z m116
-55 c18 -44 38 -93 44 -110 11 -29 12 -28 57 83 45 111 45 112 78 112 32 0 32
0 38 -57 4 -32 9 -106 13 -165 l7 -108 -37 0 -36 0 -1 63 c-2 114 -10 118 -48
22 -31 -76 -37 -85 -60 -85 -23 0 -30 9 -61 88 l-35 87 -9 -87 -9 -88 -35 0
-35 0 6 68 c4 37 10 111 13 165 l7 98 35 -3 c35 -3 37 -6 68 -83z"/>
</g>
</svg>
